<svg width="189" height="212" viewBox="0 0 189 212" fill="none" xmlns="http://www.w3.org/2000/svg">
<path d="M91.1733 57.9503C91.7586 58.1424 92.3591 58.2847 92.9686 58.3755C93.9397 58.6217 94.9276 58.797 95.924 58.9004C96.399 61.186 97.63 63.2443 99.4185 64.744C101.207 66.2438 103.449 67.0973 105.782 67.1661C108.116 67.2354 110.404 66.5162 112.278 65.1251C114.152 63.734 115.504 61.7519 116.113 59.4989C117.257 55.3713 117.845 51.1098 117.861 46.8269C120.366 43.4284 122.426 39.7238 123.992 35.8031L124.061 35.6457C124.187 35.3464 124.381 34.8793 124.622 34.2808L125.341 32.4645C125.777 31.3359 126.281 29.9973 126.806 28.517C127.042 27.8556 127.284 27.1627 127.52 26.4488L127.662 26.0288L127.714 25.8608C128.071 24.811 128.428 23.6456 128.764 22.4697C128.964 21.7926 129.152 21.1049 129.336 20.412C130.199 17.3394 130.765 14.1911 131.027 11.0104V10.8529C131.082 9.29335 130.789 7.74105 130.168 6.30902C129.548 4.87705 128.617 3.60129 127.441 2.57462C125.896 1.2133 123.979 0.345739 121.937 0.0837951C119.894 -0.178201 117.82 0.177445 115.982 1.1048C114.368 1.92181 112.993 3.14171 111.99 4.64634C110.987 6.15097 110.389 7.88924 110.255 9.69277V9.74526C109.846 12.9552 109.089 16.1112 107.998 19.1574C107.473 20.7322 106.948 22.2283 106.423 23.5669C105.369 23.0256 104.274 22.5692 103.147 22.202L103.047 22.1548C98.3203 20.652 93.1917 21.0722 88.7727 23.3243C84.3533 25.5764 80.9995 29.4791 79.4378 34.1867C77.8761 38.8944 78.232 44.0279 80.4283 48.4747C82.6252 52.9219 86.4856 56.3246 91.1733 57.945V57.9503ZM111.047 58.113C110.768 59.1492 110.171 60.0721 109.34 60.7514C108.509 61.4311 107.486 61.8327 106.414 61.9004C105.343 61.9687 104.278 61.6989 103.368 61.1293C102.458 60.5603 101.749 59.7199 101.341 58.7272C102.337 58.5508 103.318 58.2978 104.276 57.9713C107.163 56.944 109.82 55.356 112.092 53.2993C111.833 54.9219 111.485 56.5293 111.047 58.113ZM84.2231 35.7506C84.7843 34.058 85.674 32.4925 86.8405 31.1437C88.0069 29.7949 89.4279 28.6891 91.0221 27.8897C92.6163 27.0902 94.3523 26.6126 96.1308 26.4843C97.9098 26.356 99.6962 26.5793 101.389 27.1417L101.546 27.1942C102.568 27.5218 103.554 27.951 104.491 28.475L104.381 28.7322V28.7952C103.207 31.5269 101.613 34.058 99.6563 36.2966L99.5723 36.3806L99.441 36.5328C99.2573 36.748 99.0841 36.937 98.9161 37.105C98.7376 37.0315 98.5539 36.9633 98.3912 36.9055L98.2337 36.853C97.3985 36.5768 96.4877 36.6427 95.7003 37.0362C94.9135 37.4297 94.3145 38.1187 94.0342 38.9528C93.8772 39.3593 93.81 39.795 93.8373 40.2298C93.8646 40.6647 93.9854 41.0886 94.1917 41.4725C94.504 42.1444 95.04 42.6862 95.7087 43.0053C95.8862 43.0452 96.0615 43.0946 96.2337 43.1523C96.7061 43.3203 97.1985 43.4279 97.6983 43.4725C98.4972 43.5198 99.293 43.3376 99.9922 42.9476C100.359 42.7591 100.71 42.5418 101.042 42.2967C101.925 41.6062 102.731 40.823 103.446 39.9606L103.499 39.9081C105.593 37.5436 107.34 34.8922 108.685 32.0341C108.848 31.6981 109 31.3622 109.152 31.021C109.305 30.6798 109.446 30.3333 109.588 29.9711C109.592 29.9435 109.601 29.9168 109.614 29.8924C109.621 29.8665 109.621 29.8394 109.614 29.8136L109.667 29.6889C109.776 29.4347 109.898 29.1468 110.029 28.832C110.181 28.4645 110.344 28.0656 110.517 27.6246L110.696 27.1679L110.874 26.706C113.099 21.3769 114.656 15.7929 115.509 10.0812C115.556 9.44726 115.716 8.82683 115.982 8.24919C116.286 7.59932 116.72 7.01869 117.257 6.54315C118.275 5.63805 119.609 5.17364 120.969 5.2518C122.097 5.31259 123.172 5.75711 124.013 6.51165C124.601 7.02661 125.065 7.66609 125.375 8.38347C125.683 9.1009 125.828 9.87818 125.798 10.6587C125.746 11.4933 125.646 12.3752 125.509 13.2833C125.089 15.8687 124.5 18.4236 123.746 20.9317L123.525 21.6666C122.444 25.2624 121.2 28.622 120.297 30.9265L120.123 31.3654C119.997 31.6822 119.881 31.9757 119.772 32.2441C119.53 32.8477 119.336 33.3202 119.21 33.6194L119.131 33.8084C118.984 34.1758 118.832 34.538 118.68 34.9002C117.11 38.5507 115.061 41.9755 112.585 45.0841C112.155 45.609 111.714 46.134 111.257 46.6589C108.799 49.7875 105.446 52.0946 101.646 53.2731C99.8631 53.7566 98.0027 53.8852 96.1707 53.6511C95.4226 53.5581 94.682 53.4112 93.9555 53.2101C93.5728 53.177 93.1959 53.0978 92.8321 52.9739C91.1355 52.4096 89.5665 51.5167 88.2153 50.3461C86.8641 49.1749 85.757 47.7492 84.9575 46.1497C84.158 44.5507 83.6814 42.8095 83.5554 41.026C83.4294 39.2425 83.6562 37.4464 84.2231 35.7506Z" fill="white"/>
<path d="M73.7942 10.3868C72.9659 10.9405 71.9916 11.2361 70.9947 11.2361C69.6582 11.2361 68.3763 10.7051 67.4314 9.76006C66.486 8.81496 65.9553 7.53317 65.9553 6.19668C65.9553 5.19998 66.2509 4.22565 66.8047 3.39693C67.3585 2.56821 68.1454 1.92228 69.0661 1.54086C69.9868 1.15944 71.0005 1.05965 71.9779 1.25409C72.9554 1.44852 73.8535 1.92847 74.558 2.63325C75.263 3.33803 75.7428 4.23599 75.937 5.21353C76.1318 6.19107 76.032 7.2043 75.6504 8.12514C75.2693 9.04599 74.6231 9.83303 73.7942 10.3868Z" fill="white"/>
<path d="M136.303 109.313C137.14 108.753 138.124 108.455 139.132 108.455C140.482 108.455 141.777 108.991 142.732 109.946C143.687 110.901 144.223 112.196 144.223 113.546C144.223 114.553 143.925 115.538 143.365 116.375C142.806 117.213 142.01 117.865 141.08 118.251C140.149 118.636 139.126 118.737 138.138 118.54C137.15 118.344 136.243 117.859 135.531 117.147C134.819 116.435 134.334 115.528 134.137 114.54C133.941 113.552 134.042 112.528 134.427 111.598C134.812 110.667 135.465 109.872 136.303 109.313Z" fill="white"/>
<path d="M141.546 36.2756C142.751 36.2756 143.928 35.9184 144.929 35.2494C145.931 34.5802 146.711 33.6292 147.172 32.5165C147.633 31.4039 147.753 30.1795 147.519 28.9984C147.283 27.8171 146.703 26.7321 145.852 25.8805C145 25.0289 143.915 24.449 142.734 24.214C141.553 23.9791 140.328 24.0996 139.216 24.5605C138.103 25.0214 137.152 25.8019 136.483 26.8033C135.814 27.8046 135.457 28.9819 135.457 30.1863C135.457 30.9859 135.615 31.7778 135.921 32.5165C136.227 33.2553 136.675 33.9266 137.24 34.492C137.806 35.0575 138.477 35.506 139.216 35.812C139.955 36.1181 140.746 36.2756 141.546 36.2756Z" fill="white"/>
<path d="M45.4012 35.2494C44.3998 35.9184 43.2225 36.2756 42.0182 36.2756C41.2185 36.2756 40.4266 36.1181 39.6879 35.812C38.9491 35.506 38.2778 35.0575 37.7124 34.492C37.1469 33.9266 36.6984 33.2553 36.3924 32.5165C36.0864 31.7778 35.9288 30.9859 35.9288 30.1863C35.9288 28.9819 36.286 27.8046 36.9551 26.8033C37.6242 25.8019 38.5752 25.0214 39.6879 24.5605C40.8005 24.0996 42.0249 23.9791 43.2061 24.214C44.3873 24.449 45.4723 25.0289 46.3239 25.8805C47.1755 26.7321 47.7555 27.8171 47.9904 28.9984C48.2253 30.1795 48.1047 31.4039 47.6439 32.5165C47.183 33.6292 46.4025 34.5802 45.4012 35.2494Z" fill="white"/>
<path d="M164.797 67.659C163.475 68.2663 161.967 68.3262 160.601 67.8243C155.035 65.7414 149.028 65.1151 143.15 66.0054C137.274 66.8957 131.722 69.2727 127.021 72.911C139.234 73.2218 151.18 76.5567 161.788 82.6171C164.382 84.0816 166.292 86.5121 167.101 89.3788C167.911 92.2455 167.554 95.3158 166.109 97.9206C164.664 100.526 162.248 102.453 159.387 103.284C156.526 104.115 153.453 103.78 150.838 102.355C144.557 98.7101 137.573 96.4444 130.349 95.709C123.126 94.973 115.829 95.7835 108.942 98.087C110.703 101.463 112.017 105.054 112.853 108.769C113.153 109.878 113.302 111.022 113.294 112.171C113.472 113.622 113.339 115.094 112.905 116.489C112.471 117.885 111.744 119.172 110.774 120.266C110.355 120.684 109.888 121.052 109.383 121.363C107.832 122.852 105.926 123.921 103.845 124.465L36.9787 142.365C34.8228 142.941 32.5534 142.938 30.3989 142.358C28.2444 141.777 26.2807 140.639 24.7056 139.059C23.1305 137.479 21.9994 135.511 21.4262 133.355C20.8531 131.198 20.858 128.929 21.4406 126.775L39.3409 59.8978C39.8907 57.7938 40.9758 55.8679 42.4905 54.3072C42.7887 53.8227 43.1409 53.3739 43.5404 52.9686C44.5995 52.0227 45.8449 51.3088 47.1965 50.8731C48.5481 50.4369 49.976 50.2894 51.3882 50.4384C52.6653 50.4059 53.9399 50.5686 55.1678 50.9214C58.4281 51.6573 61.5893 52.7781 64.5853 54.26C66.0572 45.7549 64.6362 37.0015 60.5484 29.399C59.7757 27.9581 59.6071 26.2692 60.0796 24.7039C60.5522 23.1386 61.6272 21.8252 63.0682 21.0525C64.5091 20.2798 66.1979 20.1112 67.7632 20.5837C69.3286 21.0562 70.642 22.1313 71.4147 23.5722C77.5538 35.0093 79.1008 48.3571 75.7402 60.8952C79.8153 63.7881 83.6893 66.9535 87.336 70.3703C88.4421 69.249 89.9418 68.6044 91.5166 68.574C93.0909 68.5435 94.6153 69.1293 95.7639 70.2065C96.9125 71.2842 97.5943 72.7677 97.6647 74.3409C97.7345 75.9142 97.1875 77.4522 96.1392 78.6276C96.8899 78.3283 97.6458 78.0449 98.4174 77.7719C105.337 75.2916 112.551 73.7246 119.877 73.1105C119.549 72.8485 119.252 72.5509 118.99 72.2233C118.087 71.0779 117.675 69.6207 117.845 68.1719C118.016 66.723 118.754 65.4012 119.898 64.4963C126.094 59.596 133.45 56.3786 141.254 55.1555C149.058 53.9324 157.046 54.745 164.444 57.5146C165.805 58.029 166.906 59.0611 167.508 60.3855C168.109 61.7099 168.162 63.2186 167.653 64.5818C167.145 65.9446 166.119 67.0511 164.797 67.659ZM70.896 106.273L69.9449 105.462C70.232 105.714 70.527 105.963 70.8184 106.208C70.8441 106.23 70.8698 106.252 70.896 106.273ZM70.896 106.273L71.5879 106.864C71.3638 106.669 71.1312 106.472 70.896 106.273ZM31.7664 137.291C33.0298 137.631 34.3604 137.632 35.6244 137.295L38.6585 136.502C34.3679 133.391 30.5138 129.719 27.1991 125.583L26.5115 128.155C26.1703 129.418 26.1678 130.749 26.5042 132.013C26.8406 133.278 27.5041 134.431 28.4279 135.358C29.3517 136.284 30.5031 136.951 31.7664 137.291ZM40.1441 124.129C43.8795 127.575 48.084 130.476 52.6323 132.743L67.3202 128.812C61.6044 125.434 56.2715 121.448 51.4145 116.922C45.0644 110.922 39.5202 104.123 34.9209 96.6959L30.7529 112.281C33.3042 116.657 36.4664 120.646 40.1441 124.129ZM58.6061 109.247C65.6115 115.715 73.6488 120.967 82.3859 124.785L95.4621 121.279C83.504 116.551 72.7318 109.251 63.9081 99.898C60.8183 96.8255 57.9022 93.5835 55.173 90.1867C53.9692 88.689 52.8423 87.1961 51.7924 85.709C47.8644 80.4055 44.7309 74.5572 42.4905 68.3493L38.8002 82.3179C43.8098 92.3631 50.5094 101.472 58.6061 109.247ZM161.15 88.7174C160.633 88.0948 159.997 87.5819 159.279 87.2103H159.252C150.356 82.1221 140.438 79.078 130.219 78.3C119.999 77.5215 109.735 79.0286 100.171 82.7116L99.1629 83.079L99.2101 83.1315C89.2646 87.1142 80.3853 93.362 73.2782 101.378C74.6378 102.57 75.9554 103.662 77.2625 104.712C79.0945 106.181 80.937 107.541 83.0368 108.911C88.7654 102.318 96.0264 97.235 104.181 94.108C112.132 90.9888 120.684 89.6959 129.202 90.3258C137.72 90.9552 145.988 93.4911 153.394 97.7458C154.088 98.1626 154.857 98.4355 155.658 98.5489C156.459 98.6618 157.274 98.613 158.056 98.4051C158.838 98.1967 159.569 97.834 160.208 97.3374C160.847 96.8408 161.379 96.2213 161.774 95.5153C162.168 94.8087 162.417 94.0308 162.504 93.2266C162.592 92.4224 162.518 91.6087 162.285 90.8344C162.052 90.0596 161.666 89.3399 161.15 88.7174Z" fill="white"/>
<path d="M7.72061 155.814C7.44629 154.368 7.67474 153.168 8.40595 152.215C9.16265 151.225 10.2484 150.596 11.6632 150.327C13.1408 150.047 14.3973 150.232 15.4327 150.883C16.4621 151.502 17.1139 152.534 17.3882 153.98L21.1989 174.07C21.3122 174.668 21.5499 175.062 21.912 175.254C22.2682 175.415 22.769 175.222 23.4146 174.676C24.8136 173.466 26.0755 172.478 27.2003 171.71C28.3191 170.912 29.6173 170.373 31.095 170.092C33.1385 169.705 34.7804 169.947 36.0207 170.819C37.2609 171.691 38.0451 172.992 38.3731 174.721C38.7249 176.576 38.4303 178.114 37.4894 179.335C36.5798 180.549 34.8989 181.389 32.4466 181.854L22.7318 183.697C20.6568 184.091 18.883 184.183 17.4102 183.974C15.9314 183.733 14.7082 183.037 13.7406 181.885C12.8045 180.727 12.1038 178.922 11.6386 176.47L7.72061 155.814ZM38.6617 168.071C38.1905 165.587 38.2634 163.31 38.8802 161.238C39.5284 159.161 40.6629 157.415 42.2837 156C43.9358 154.58 46.0352 153.628 48.5818 153.145C50.5625 152.769 52.4074 152.793 54.1165 153.218C55.8571 153.637 57.2995 154.373 58.4439 155.427C59.5822 156.448 60.2885 157.682 60.5629 159.129C60.8491 160.638 60.6117 161.79 59.8507 162.586C59.0897 163.382 57.8446 163.944 56.1154 164.272L46.212 166.15C46.367 166.967 46.8096 167.584 47.5398 167.999C48.3014 168.408 49.4525 168.467 50.993 168.175C51.779 168.025 52.4872 167.81 53.1176 167.527C53.7795 167.239 54.4443 166.966 55.1121 166.709C55.8054 166.415 56.5922 166.184 57.4725 166.017C58.7301 165.779 59.854 166.038 60.8444 166.794C61.8288 167.52 62.4701 168.668 62.7683 170.24C63.1201 172.095 62.4355 173.723 60.7145 175.125C59.025 176.52 56.6396 177.51 53.5586 178.094C51.3893 178.506 49.2652 178.469 47.1864 177.984C45.139 177.493 43.345 176.449 41.8044 174.852C40.2579 173.224 39.2103 170.963 38.6617 168.071ZM53.5566 163.145C54.0281 163.055 54.1436 162.805 53.9029 162.395C53.6937 161.979 53.2299 161.594 52.5117 161.242C51.7934 160.89 50.837 160.827 49.6423 161.053C48.2589 161.316 47.2781 161.811 46.6997 162.54C46.1528 163.262 45.939 163.938 46.0583 164.567L53.5566 163.145ZM78.781 173.31C77.1147 173.626 75.534 173.535 74.039 173.037C72.5754 172.533 71.3352 171.661 70.3182 170.42C69.2953 169.149 68.605 167.57 68.2472 165.683L66.6728 157.383L64.9726 157.95C64.0533 158.255 63.1575 158.083 62.2853 157.434C61.4132 156.785 60.8637 155.863 60.6371 154.669C60.4105 153.474 60.5872 152.431 61.1672 151.539C61.7412 150.616 62.5117 150.128 63.4788 150.075L65.2684 149.979L64.6129 146.782C64.343 145.53 64.5167 144.471 65.1341 143.605C65.7455 142.707 66.7743 142.121 68.2205 141.847C69.6667 141.572 70.8544 141.738 71.7835 142.343C72.7066 142.918 73.256 143.839 73.4317 145.109L73.9457 148.333L76.3825 147.529C78.0325 146.956 79.3811 147.026 80.4284 147.739C81.4697 148.421 82.1037 149.359 82.3303 150.554C82.5569 151.749 82.3136 152.87 81.6003 153.917C80.9124 154.927 79.7302 155.477 78.0536 155.567L75.3501 155.737L76.6829 162.764C76.7604 163.173 76.9735 163.523 77.322 163.815C77.6646 164.076 78.0283 164.105 78.4132 163.902C78.8609 163.686 79.2976 163.327 79.7231 162.823C80.18 162.313 80.8172 161.98 81.6346 161.825C82.8608 161.592 83.8874 161.854 84.7146 162.609C85.5418 163.364 86.0777 164.386 86.3222 165.675C86.513 166.681 86.3363 167.724 85.7921 168.804C85.2734 169.847 84.4232 170.774 83.2415 171.584C82.0599 172.395 80.573 172.97 78.781 173.31ZM101.072 169.57C98.9031 169.982 96.8522 170.159 94.9198 170.102C93.0128 170.008 91.4226 169.609 90.1493 168.906C88.87 168.172 88.0843 167.034 87.7921 165.494C87.5356 164.142 87.7326 162.948 88.3831 161.913C89.0335 160.877 90.0347 160.232 91.3866 159.975C92.2355 159.814 93.1112 159.795 94.0137 159.917C94.9417 160.001 95.9169 160.077 96.9392 160.143C97.9615 160.21 99.0386 160.136 100.17 159.921C101.177 159.73 101.844 159.555 102.171 159.395C102.493 159.204 102.625 158.951 102.565 158.636C102.493 158.259 102.226 158.049 101.762 158.007C101.329 157.959 100.592 157.936 99.55 157.938L96.0293 157.922C94.5609 157.907 93.109 157.808 91.6736 157.624C90.2637 157.403 89.0321 156.92 87.9788 156.176C86.957 155.425 86.297 154.264 85.9989 152.692C85.5933 150.554 86.2205 148.709 87.8802 147.156C89.5714 145.598 92.2248 144.475 95.8403 143.79C97.9153 143.396 99.809 143.249 101.521 143.347C103.265 143.44 104.702 143.802 105.832 144.435C106.955 145.036 107.63 145.934 107.857 147.129C108.133 148.412 107.984 149.515 107.41 150.438C106.836 151.361 105.999 151.927 104.898 152.136C104.112 152.285 103.293 152.343 102.44 152.309C101.612 152.238 100.706 152.182 99.7206 152.141C98.7611 152.062 97.6811 152.121 96.4804 152.316C95.6196 152.414 94.9369 152.592 94.4323 152.851C93.9276 153.109 93.7081 153.412 93.7737 153.757C93.8452 154.135 94.2103 154.342 94.8689 154.38C95.5216 154.387 96.4976 154.381 97.7969 154.362L101.261 154.34C103.371 154.298 105.073 154.431 106.369 154.739C107.691 155.01 108.705 155.55 109.413 156.36C110.12 157.171 110.626 158.378 110.93 159.981C111.246 161.647 111.024 163.139 110.264 164.456C109.53 165.735 108.364 166.803 106.768 167.659C105.172 168.516 103.273 169.153 101.072 169.57ZM126.808 164.347C124.293 164.824 121.97 164.515 119.841 163.421C117.706 162.295 115.894 160.554 114.405 158.198C112.91 155.811 111.855 152.998 111.241 149.76C110.668 146.742 110.607 144.018 111.058 141.587C111.535 139.119 112.4 136.984 113.654 135.183C114.934 133.344 116.524 131.854 118.425 130.712C120.351 129.532 122.461 128.725 124.756 128.289C128.969 127.49 132.195 127.497 134.434 128.31C136.698 129.086 138.006 130.401 138.358 132.256C138.632 133.702 138.496 135.047 137.95 136.291C137.436 137.528 136.44 138.287 134.962 138.567C133.956 138.758 132.979 138.846 132.032 138.83C131.116 138.808 130.171 138.808 129.198 138.83C128.251 138.814 127.211 138.914 126.079 139.129C123.596 139.6 121.938 140.647 121.106 142.271C120.305 143.888 120.108 145.766 120.513 147.904C120.841 149.633 121.455 150.982 122.356 151.951C123.287 152.914 124.386 153.553 125.65 153.867C126.94 154.143 128.309 154.144 129.755 153.87C130.95 153.643 132.015 153.164 132.951 152.433C133.887 151.702 134.36 150.586 134.368 149.086L132.057 149.525C130.957 149.733 130.046 149.564 129.323 149.017C128.594 148.439 128.129 147.615 127.926 146.546C127.723 145.477 127.858 144.556 128.33 143.783C128.802 143.009 129.588 142.518 130.689 142.309L136.348 141.236C138.391 140.848 139.926 141.127 140.952 142.072C142.004 142.98 142.733 144.503 143.138 146.641L144.811 155.46C145.121 157.095 144.916 158.42 144.197 159.436C143.478 160.452 142.395 161.097 140.949 161.371C139.408 161.663 138.117 161.469 137.076 160.787C136.035 160.105 135.359 158.946 135.049 157.312L134.494 154.388L133.646 154.549C134.188 157.41 133.862 159.638 132.666 161.232C131.464 162.796 129.653 163.807 127.232 164.266L126.808 164.347ZM159.785 157.896C156.106 158.594 152.961 158.067 150.349 156.315C147.762 154.526 146.09 151.635 145.333 147.642C144.867 145.189 144.962 142.94 145.616 140.895C146.27 138.849 147.395 137.137 148.99 135.76C150.611 134.345 152.632 133.408 155.053 132.949C157.756 132.436 160.106 132.544 162.101 133.273C164.089 133.971 165.7 135.163 166.932 136.851C168.196 138.533 169.06 140.601 169.525 143.053C170.283 147.046 169.864 150.333 168.269 152.916C166.7 155.461 163.872 157.121 159.785 157.896ZM150.792 145.776C150.977 146.75 151.596 147.349 152.648 147.573C153.694 147.766 155.396 147.638 157.754 147.191C160.112 146.744 161.743 146.239 162.646 145.677C163.543 145.083 163.899 144.299 163.714 143.325C163.535 142.381 162.923 141.814 161.876 141.621C160.83 141.429 159.128 141.556 156.77 142.003C154.412 142.451 152.782 142.955 151.879 143.518C150.976 144.08 150.614 144.832 150.792 145.776Z" fill="white"/>
</svg>
